<?xml version="1.0" encoding="utf-8"?>
<!-- Generator: Adobe Illustrator 16.0.0, SVG Export Plug-In . SVG Version: 6.00 Build 0)  -->
<!DOCTYPE svg PUBLIC "-//W3C//DTD SVG 1.1//EN" "http://www.w3.org/Graphics/SVG/1.1/DTD/svg11.dtd">
<svg version="1.1" id="Layer_1" xmlns="http://www.w3.org/2000/svg" xmlns:xlink="http://www.w3.org/1999/xlink" x="0px" y="0px"
	 width="290.86px" height="223.73px" viewBox="0 0 290.86 223.73" enable-background="new 0 0 290.86 223.73" xml:space="preserve">
<g>
	<rect x="110.93" y="24.365" fill="#FFFFFF" stroke="#475993" stroke-miterlimit="10" width="116.217" height="199.365"/>
	<path fill="#475993" d="M227.145,0H63.714c-16.65,0-30.148,13.498-30.148,30.148v163.433c0,16.65,13.498,30.148,30.148,30.148
		h80.604l0.138-79.949h-20.771c-2.7,0-4.89-2.183-4.901-4.882l-0.1-25.771c-0.01-2.714,2.187-4.92,4.901-4.92h20.733V83.306
		c0-28.897,17.649-44.632,43.426-44.632h21.154c2.707,0,4.9,2.194,4.9,4.901v21.729c0,2.706-2.193,4.899-4.898,4.901l-12.98,0.006
		c-14.02,0-16.734,6.662-16.734,16.438v21.558h30.805c2.936,0,5.213,2.563,4.867,5.478l-3.055,25.771
		c-0.293,2.467-2.383,4.324-4.867,4.324h-27.613l-0.137,79.949h47.961c16.65,0,30.146-13.498,30.146-30.147V30.148
		C257.293,13.498,243.795,0,227.145,0z"/>
</g>
</svg>
