<?xml version="1.0" encoding="utf-8"?>
<!-- Generator: Adobe Illustrator 16.0.0, SVG Export Plug-In . SVG Version: 6.00 Build 0)  -->
<!DOCTYPE svg PUBLIC "-//W3C//DTD SVG 1.1//EN" "http://www.w3.org/Graphics/SVG/1.1/DTD/svg11.dtd">
<svg version="1.1" xmlns="http://www.w3.org/2000/svg" xmlns:xlink="http://www.w3.org/1999/xlink" x="0px" y="0px" width="340px"
	 height="340px" viewBox="0 0 340 340" enable-background="new 0 0 340 340" xml:space="preserve">
<g id="Layer_1">
	<path fill-rule="evenodd" clip-rule="evenodd" fill="#FEFEFE" d="M-717.341,644.066c-0.054-2.303-0.152-4.605-0.153-6.908
		c-0.008-71.605-0.008-143.211,0-214.818c0-2.138,0.087-4.276,0.133-6.415c3.612-11.473,8.075-22.474,16.096-31.756
		c9.707-11.233,22.265-17.512,36.212-21.53c9.218-0.046,18.435-0.13,27.652-0.132c64.696-0.012,129.393-0.007,194.089-0.001
		c2.14,0,4.277,0.074,6.416,0.114c2.796,0.938,5.604,1.839,8.384,2.82c19.862,7.012,33.992,20.06,41.512,39.867
		c1.796,4.731,2.938,9.712,4.383,14.577c0.042,37.036,0.121,74.074,0.118,111.109c-0.004,36.049-0.09,72.098-0.14,108.146
		c-0.656,2.199-1.328,4.394-1.963,6.598c-5.465,18.957-15.655,34.487-33.6,43.59c-7.091,3.598-15.078,5.428-22.656,8.062
		c-41.813,0.041-83.626,0.106-125.439,0.11c-31.277,0.004-62.555-0.069-93.832-0.11c-2.038-0.609-4.065-1.258-6.116-1.825
		c-14.603-4.04-27.283-11.182-37.056-22.988C-710.239,664.191-714.138,654.297-717.341,644.066z"/>
	<path fill-rule="evenodd" clip-rule="evenodd" fill="#FEFEFE" d="M-1077.341,644.066c-0.054-2.303-0.152-4.605-0.153-6.908
		c-0.008-71.605-0.008-143.211,0-214.818c0-2.138,0.087-4.276,0.133-6.415c3.612-11.473,8.075-22.474,16.096-31.756
		c9.707-11.233,22.265-17.512,36.212-21.53c9.218-0.046,18.435-0.13,27.652-0.132c64.696-0.012,129.393-0.007,194.089-0.001
		c2.14,0,4.277,0.074,6.416,0.114c2.796,0.938,5.604,1.839,8.384,2.82c19.862,7.012,33.992,20.06,41.512,39.867
		c1.796,4.731,2.938,9.712,4.383,14.577c0.042,37.036,0.121,74.074,0.118,111.109c-0.004,36.049-0.09,72.098-0.14,108.146
		c-0.656,2.199-1.328,4.394-1.963,6.598c-5.465,18.957-15.655,34.487-33.6,43.59c-7.091,3.598-15.078,5.428-22.656,8.062
		c-41.813,0.041-83.626,0.106-125.439,0.11c-31.277,0.004-62.555-0.069-93.832-0.11c-2.038-0.609-4.065-1.258-6.116-1.825
		c-14.603-4.04-27.283-11.182-37.056-22.988C-1070.239,664.191-1074.138,654.297-1077.341,644.066z"/>
	<path fill-rule="evenodd" clip-rule="evenodd" fill="#FEFEFE" d="M-1437.341,644.066c-0.054-2.303-0.152-4.605-0.153-6.908
		c-0.008-71.605-0.008-143.211,0-214.818c0-2.138,0.087-4.276,0.133-6.415c3.612-11.473,8.075-22.474,16.096-31.756
		c9.707-11.233,22.265-17.512,36.212-21.53c9.218-0.046,18.435-0.13,27.652-0.132c64.696-0.012,129.393-0.007,194.089-0.001
		c2.14,0,4.277,0.074,6.416,0.114c2.796,0.938,5.604,1.839,8.384,2.82c19.862,7.012,33.992,20.06,41.512,39.867
		c1.796,4.731,2.938,9.712,4.383,14.577c0.042,37.036,0.121,74.074,0.118,111.109c-0.004,36.049-0.09,72.098-0.14,108.146
		c-0.656,2.199-1.328,4.394-1.963,6.598c-5.465,18.957-15.655,34.487-33.6,43.59c-7.091,3.598-15.078,5.428-22.656,8.062
		c-41.813,0.041-83.626,0.106-125.439,0.11c-31.277,0.004-62.555-0.069-93.832-0.11c-2.038-0.609-4.065-1.258-6.116-1.825
		c-14.603-4.04-27.283-11.182-37.056-22.988C-1430.239,664.191-1434.138,654.297-1437.341,644.066z"/>
	<path fill-rule="evenodd" clip-rule="evenodd" fill="#FEFEFE" d="M-1797.341,644.066c-0.054-2.303-0.152-4.605-0.153-6.908
		c-0.008-71.605-0.008-143.211,0-214.818c0-2.138,0.087-4.276,0.133-6.415c3.612-11.473,8.075-22.474,16.096-31.756
		c9.707-11.233,22.265-17.512,36.212-21.53c9.218-0.046,18.435-0.13,27.652-0.132c64.696-0.012,129.393-0.007,194.089-0.001
		c2.14,0,4.277,0.074,6.416,0.114c2.796,0.938,5.604,1.839,8.384,2.82c19.862,7.012,33.992,20.06,41.512,39.867
		c1.796,4.731,2.938,9.712,4.383,14.577c0.042,37.036,0.121,74.074,0.118,111.109c-0.004,36.049-0.09,72.098-0.14,108.146
		c-0.656,2.199-1.328,4.394-1.963,6.598c-5.465,18.957-15.655,34.487-33.6,43.59c-7.091,3.598-15.078,5.428-22.656,8.062
		c-41.813,0.041-83.626,0.106-125.439,0.11c-31.277,0.004-62.555-0.069-93.832-0.11c-2.038-0.609-4.065-1.258-6.116-1.825
		c-14.603-4.04-27.283-11.182-37.056-22.988C-1790.239,664.191-1794.138,654.297-1797.341,644.066z"/>
	<path fill-rule="evenodd" clip-rule="evenodd" fill="#FFFFFF" stroke="#FFFFFF" stroke-width="7" stroke-miterlimit="10" d="
		M-431.207,681.243c0,6.977-3.402,12.633-7.6,12.633h-174.8c-4.197,0-7.601-5.656-7.601-12.633V390.665
		c0-6.978,3.403-12.634,7.601-12.634h174.8c4.197,0,7.6,5.656,7.6,12.634V681.243z"/>
	<path fill-rule="evenodd" clip-rule="evenodd" fill="#FFFFFF" stroke="#FFFFFF" stroke-width="16.3406" stroke-miterlimit="10" d="
		M-771.379,677.938c0,6.978-4.755,12.634-10.619,12.634h-244.251c-5.864,0-10.62-5.656-10.62-12.634V387.36
		c0-6.978,4.756-12.635,10.62-12.635h244.251c5.864,0,10.619,5.657,10.619,12.635V677.938z"/>
	
		<image overflow="visible" width="452" height="449" xlink:href="linkedin.png"  transform="matrix(0.7501 0 0 0.7501 -1799.5234 1.9658)">
	</image>
	<image overflow="visible" width="932" height="934" xlink:href="FB.png"  transform="matrix(0.3648 0 0 0.3648 -720.9531 0)">
	</image>
	
		<image overflow="visible" width="2044" height="2044" xlink:href="github.png"  transform="matrix(0.1663 0 0 0.1663 -1080 0.3647)">
	</image>
	<path fill-rule="evenodd" clip-rule="evenodd" fill="#D35400" d="M-1474.869,701.151c-102.858,0-205.715,0-308.573,0
		c-0.95-0.576-1.879-1.194-2.854-1.724c-6.6-3.577-10.945-8.905-12.661-16.321c-0.25-1.076-0.69-2.106-1.042-3.159
		c0-99.198,0-198.395,0-297.593c0.481-1.262,0.785-2.633,1.478-3.761c2.45-3.994,4.496-8.453,7.733-11.682
		c2.695-2.687,6.849-3.897,10.357-5.761c100.6,0,201.199,0,301.799,0c0.679,0.313,1.336,0.693,2.041,0.93
		c10.973,3.688,16.461,11.288,16.461,22.846c0,97.408-0.092,194.816,0.131,292.225c0.025,10.675-4.197,17.777-13.217,22.58
		C-1473.842,700.063-1474.322,700.672-1474.869,701.151z M-1617.759,508.175c0-5.265-0.143-10.534,0.052-15.792
		c0.121-3.267-0.965-4.39-4.304-4.351c-13.792,0.164-27.591,0.187-41.383-0.012c-3.576-0.052-4.411,1.193-4.406,4.563
		c0.086,51.86,0.087,103.722-0.003,155.58c-0.006,3.384,0.866,4.703,4.406,4.665c14.295-0.152,28.593-0.137,42.889-0.008
		c3.352,0.031,4.53-0.928,4.51-4.506c-0.146-25.738-0.158-51.481-0.004-77.222c0.034-5.642,0.534-11.343,1.473-16.904
		c1.742-10.327,6.033-19.28,16.91-22.417c4.928-1.424,10.375-1.632,15.552-1.438c8.009,0.3,14.328,4.34,17.254,11.916
		c2.048,5.305,3.686,11.149,3.764,16.777c0.417,29.646,0.325,59.302,0.275,88.951c-0.006,3.564,1.076,4.894,4.726,4.852
		c14.044-0.158,28.091-0.056,42.137-0.067c5.188-0.004,5.279-0.095,5.281-5.282c0.007-28.643,0.26-57.29-0.129-85.927
		c-0.146-10.775-1.186-21.628-2.9-32.271c-2.105-13.063-7.19-25.062-18.021-33.423c-16.198-12.506-34.9-13.596-53.997-10.186
		C-1597.833,488.202-1608.957,496.217-1617.759,508.175z M-1749.879,570.537c0,25.98,0.057,51.96-0.07,77.938
		c-0.017,3.33,0.995,4.376,4.254,4.347c14.413-0.129,28.829-0.123,43.242-0.004c3.19,0.027,4.359-0.899,4.353-4.297
		c-0.094-52.084-0.095-104.169,0.002-156.253c0.006-3.394-1.074-4.269-4.312-4.233c-14.162,0.154-28.327,0.063-42.49,0.067
		c-4.968,0.002-4.978,0.011-4.978,4.878C-1749.881,518.833-1749.88,544.686-1749.879,570.537z M-1724.29,466.714
		c15.724,1.057,30.187-13.38,29.998-29.619c-0.195-16.787-13.067-29.991-29.695-30.016c-16.681-0.024-30.034,13.014-30.046,29.717
		C-1754.046,456.149-1737.414,467.771-1724.29,466.714z"/>
	<path fill-rule="evenodd" clip-rule="evenodd" fill="#D35400" d="M-425.133,700c-59.24,0-118.482,0-177.723,0
		c-0.771-0.276-1.541-0.793-2.313-0.795c-23.11-0.042-46.221-0.023-69.331-0.051c-2.12-0.004-4.258-0.121-6.355-0.404
		c-17.927-2.414-33.34-16.316-37.585-33.907c-0.648-2.689-1.047-5.439-1.561-8.161c0-84.697,0-169.394,0-254.089
		c0.259-1.415,0.497-2.834,0.777-4.244c3.813-19.243,15.191-31.546,34.117-36.839c2.543-0.711,5.198-1.016,7.802-1.51
		c84.909,0,169.817,0,254.726,0c2.788,0.522,5.605,0.919,8.358,1.583c19.665,4.748,34.216,23.254,34.216,43.437
		c0,83.041,0.031,166.08-0.084,249.12c-0.006,4.35-0.728,8.851-1.984,13.021c-5.541,18.397-22.271,31.142-41.478,32.041
		C-424.089,699.229-424.605,699.724-425.133,700z M-498.382,524.054c0-0.913,0-1.622,0-2.331c0-9.524-0.027-19.049,0.017-28.574
		c0.014-2.904,0.062-5.826,0.373-8.707c0.79-7.245,3.879-13.08,11.133-15.646c3.099-1.096,6.469-1.816,9.744-1.942
		c7.592-0.292,15.201-0.094,22.804-0.141c5.35-0.032,8.479-3.206,8.481-8.512c0-10.435,0.002-20.868-0.002-31.304
		c0-5.263-3.102-8.384-8.353-8.388c-10.278-0.007-20.556,0.016-30.834-0.008c-7.197-0.017-14.302,0.718-21.266,2.558
		c-17.62,4.657-30.753,14.836-38.612,31.42c-5.11,10.783-6.794,22.295-6.905,34.077c-0.111,11.709-0.022,23.418-0.029,35.126
		c-0.001,0.759-0.072,1.517-0.117,2.372c-0.886,0-1.549,0-2.214,0c-9.487,0-18.975-0.006-28.462,0.012
		c-0.842,0.001-1.716,0.029-2.519,0.254c-3.594,0.997-5.593,3.857-5.606,8.157c-0.012,4.424,0.15,8.848,0.171,13.273
		c0.034,8.129,0.016,16.259,0.029,24.388c0.01,4.911,3.155,8.03,8.113,8.034c9.609,0.009,19.218,0.002,28.828,0.002
		c0.645,0,1.29,0,1.987,0c0.053,0.663,0.113,1.078,0.112,1.493c-0.065,20.438-0.148,40.88-0.205,61.32
		c-0.052,18.623-0.063,37.246-0.137,55.87c-0.006,1.441,0.456,1.843,1.884,1.839c16.603-0.046,33.205-0.027,49.809-0.034
		c0.526-0.001,1.054-0.083,1.775-0.144c0-0.949-0.002-1.783,0-2.618c0.073-38.456,0.146-76.915,0.219-115.373
		c0.004-2.351,0.01-2.354,2.404-2.354c13.016,0,26.03,0.007,39.045-0.003c4.217-0.003,7.354-2.688,7.914-6.771
		c0.279-2.038,0.501-4.084,0.74-6.128c1.251-10.76,2.346-21.539,3.813-32.268c0.716-5.238-3.704-9.085-7.989-9.027
		c-14.594,0.198-29.192,0.076-43.788,0.076C-496.736,524.054-497.449,524.054-498.382,524.054z"/>
	<path fill-rule="evenodd" clip-rule="evenodd" fill="#D35400" d="M-800.548,700c-74.742,0-149.484,0-224.227,0
		c-1.869-0.163-3.742-0.289-5.606-0.496c-7.03-0.784-13.741-2.708-19.963-6.074c-16.73-9.053-25.959-23.382-29.135-41.883
		c-0.271-1.575-0.352-3.184-0.521-4.776c0-77.348,0-154.696,0-232.044c0.04-0.297,0.08-0.593,0.118-0.889
		c0.417-3.266,0.603-6.578,1.285-9.786c5.032-23.624,23.376-39.794,46.971-43.53c1.66-0.263,3.347-0.352,5.021-0.521
		c73.855,0,147.711,0,221.565,0c0.297,0.036,0.595,0.103,0.892,0.104c3.02,0.008,6.043-0.096,9.058,0.033
		c2.98,0.127,5.985,0.281,8.92,0.778c11.885,2.014,22.076,7.343,30.439,16.054c7.598,7.916,12.347,17.336,14.565,28.053
		c0.948,4.578,1.09,9.225,1.063,13.881c-0.002,0.383,0.067,0.765,0.103,1.146c0,74.854,0,149.707,0,224.561
		c-0.036,0.268-0.078,0.537-0.107,0.807c-0.294,2.751-0.436,5.528-0.904,8.25c-1.987,11.512-6.996,21.534-15.244,29.842
		c-7.781,7.838-17.197,12.746-27.946,15.151c-4.927,1.103-9.929,1.313-14.955,1.239C-799.62,699.892-800.084,699.965-800.548,700z
		 M-970.599,467.693c1.922,0.473,3.765,0.615,5.316,1.362c5.931,2.854,11.788,5.862,17.631,8.896c2.964,1.539,5.938,2,9.203,1.07
		c10.765-3.066,21.739-4.314,32.927-3.609c6.149,0.387,12.196,1.377,18.149,2.948c4.403,1.162,8.72,1.128,12.851-0.979
		c1.6-0.816,3.051-1.926,4.664-2.711c5.546-2.695,11.124-5.327,16.714-7.934c1.363-0.636,2.327-0.1,2.833,1.468
		c1.084,3.36,1.723,6.81,1.795,10.343c0.066,3.27-0.558,6.426-1.626,9.517c-1.457,4.214-0.567,7.947,2.454,11.204
		c0.941,1.016,1.885,2.033,2.759,3.105c3.414,4.187,5.817,8.863,6.24,14.314c0.474,6.101,0.735,12.214,0.401,18.342
		c-0.28,5.127-0.894,10.192-2.354,15.129c-3.402,11.49-10.386,19.945-21.276,25.096c-5.787,2.736-11.967,4.059-18.218,5.139
		c-2.915,0.503-5.854,0.895-8.74,1.527c-3.873,0.847-6.307,4.744-5.292,8.359c0.246,0.877,0.713,1.781,1.319,2.455
		c4.587,5.098,6.28,11.221,6.398,17.885c0.067,3.793-0.065,7.59-0.062,11.385c0.008,6.815,0.049,13.635,0.08,20.453
		c0.006,1.191-0.021,2.385,0.059,3.572c0.238,3.594,1.375,6.858,3.959,9.438c4.006,3.996,8.848,4.754,14.04,3.004
		c6.114-2.061,11.968-4.773,17.694-7.748c20.345-10.564,36.921-25.297,49.398-44.588c12.895-19.936,19.713-41.759,20.293-65.485
		c0.127-5.169-0.142-10.354-0.428-15.522c-0.383-6.941-1.439-13.806-2.802-20.622c-3.271-16.372-9.549-31.508-18.768-45.414
		c-10.042-15.147-22.71-27.675-37.915-37.614c-17.156-11.215-35.889-18.193-56.249-20.756c-7.19-0.904-14.398-1.168-21.636-0.858
		c-6.066,0.259-12.082,0.948-18.039,2.097c-12.898,2.485-25.195,6.73-36.85,12.803c-13.063,6.807-24.669,15.554-34.799,26.247
		c-9.406,9.927-17.093,21.05-23.052,33.361c-8.026,16.583-12.42,34.087-13.167,52.489c-0.226,5.564-0.089,11.129,0.419,16.685
		c0.468,5.131,1.196,10.22,2.25,15.258c2.788,13.333,7.546,25.94,14.087,37.879c8.597,15.691,19.849,29.116,34.126,39.957
		c10.959,8.321,23.013,14.601,35.911,19.325c3.077,1.128,6.179,1.678,9.438,1.131c5.596-0.938,9.937-5.715,10.168-11.342
		c0.179-4.344,0.28-8.691,0.305-13.04c0.033-5.791-0.037-11.581-0.071-17.374c-0.015-2.55-0.024-5.1-0.088-7.647
		c-0.043-1.696-0.468-3.301-1.613-4.61c-1.988-2.272-4.584-2.645-7.359-2.124c-4.712,0.888-9.414,1.709-14.249,1.253
		c-3.99-0.377-7.69-1.537-11.017-3.794c-3.746-2.542-6.482-5.995-8.843-9.798c-0.55-0.885-1.185-1.759-1.937-2.471
		c-3.166-3.002-7.845-2.42-10.069,1.248c-1.602,2.641-1.449,5.419-0.212,8.119c4.57,9.97,12.177,16.471,22.652,19.67
		c4.938,1.507,10.043,1.871,15.14,2.318c1.455,0.129,2.907,0.279,4.361,0.42c0,8.445,0,16.794,0,25.222
		c-0.766-0.243-1.449-0.451-2.128-0.675c-15.559-5.146-29.02-13.714-40.723-25.101c-9.802-9.537-17.666-20.493-23.664-32.785
		c-7.854-16.101-11.797-33.122-11.93-51.021c-0.041-5.456,0.372-10.893,1.104-16.307c0.976-7.23,2.587-14.311,4.92-21.216
		c6.312-18.673,16.586-34.847,31.028-48.266c21.2-19.696,46.343-30.138,75.242-31.48c6.204-0.288,12.399-0.003,18.576,0.73
		c7.741,0.918,15.322,2.543,22.72,4.989c21.449,7.091,39.486,19.246,53.784,36.748c16.91,20.699,25.287,44.609,26.048,71.233
		c0.13,4.557-0.145,9.134-0.416,13.69c-0.368,6.17-1.437,12.248-2.929,18.242c-5.626,22.601-17.037,41.797-34.112,57.604
		c-10.814,10.012-23.083,17.699-37.022,22.621c-1.134,0.399-2.282,0.755-3.524,1.166c-0.084-1.651-0.229-3.166-0.226-4.682
		c0.01-5.098,0.093-10.194,0.106-15.292c0.009-3.629-0.014-7.259-0.086-10.888c-0.087-4.35-0.492-8.674-1.356-12.944
		c-0.387-1.913-0.855-3.811-1.295-5.753c0.262-0.072,0.525-0.145,0.789-0.217c4.049-1.111,8.161-2.033,12.133-3.373
		c7.886-2.66,14.969-6.756,20.971-12.598c6.263-6.097,10.527-13.426,13.297-21.664c2.036-6.057,3.164-12.305,3.85-18.644
		c0.663-6.138,0.692-12.263-0.155-18.389c-1.211-8.751-4.215-16.819-9.161-24.142c-1.434-2.123-1.83-4.418-1.47-6.878
		c0.498-3.401,0.757-6.808,0.681-10.251c-0.085-3.779-0.539-7.503-1.4-11.177c-0.791-3.369-1.782-6.679-3.297-9.806
		c-1.064-2.197-2.742-3.754-5.2-4.086c-1.795-0.242-3.653-0.292-5.457-0.132c-4.243,0.376-8.286,1.634-12.245,3.164
		c-5.281,2.04-10.25,4.718-15.177,7.477c-1.982,1.107-4.083,1.476-6.326,1.19c-5.569-0.709-11.13-1.52-16.716-2.058
		c-5.317-0.512-10.665-0.767-16.011-0.419c-3.367,0.219-6.73,0.516-10.089,0.852c-2.062,0.207-4.103,0.646-6.166,0.822
		c-5.796,0.493-11.175-0.908-16.079-3.974c-6.617-4.136-13.707-6.708-21.542-7.284c-4.716-0.347-8.641,1.576-10.519,5.777
		c-2.659,5.949-4.16,12.191-4.172,18.73c-0.007,3.948,0.625,7.821,1.788,11.604c0.369,1.199,0.369,2.363-0.397,3.48
		c-6.683,9.729-10.046,20.555-10.55,32.299c-0.192,4.49,0.046,8.967,0.599,13.431c0.697,5.642,1.826,11.181,3.688,16.56
		c3.71,10.727,9.975,19.581,19.251,26.215c7.471,5.344,15.793,8.798,24.718,10.746c4.8,1.049,9.678,1.772,14.544,2.479
		c4.416,0.641,7.339-1.354,8.29-5.383c0.917-3.881-0.618-6.502-4.479-7.554c-1.09-0.296-2.218-0.456-3.331-0.666
		c-4.427-0.833-8.897-1.483-13.273-2.53c-6.713-1.604-12.936-4.383-18.406-8.679c-6.98-5.483-11.32-12.706-13.841-21.114
		c-2.874-9.584-3.43-19.367-2.323-29.258c0.843-7.527,3.747-14.201,8.888-19.811c1.669-1.822,2.074-3.766,1.495-6.116
		c-0.621-2.519-1.153-5.068-1.534-7.633c-0.551-3.714-0.479-7.458-0.012-11.183C-971.289,471.686-970.938,469.816-970.599,467.693z"
		/>
	<rect x="-1074.171" y="363.095" fill="none" width="340" height="339.834"/>
	<line fill-rule="evenodd" clip-rule="evenodd" fill="#343434" x1="505.976" y1="-78.99" x2="478.375" y2="-119.594"/>
	<path fill-rule="evenodd" clip-rule="evenodd" fill="#D35400" stroke="#717171" stroke-width="0.9998" stroke-miterlimit="10" d="
		M-1439.963,468.424c25.045,2.719,62.918,31.262,62.07,74.673c-0.666,34.101-31.774,70.963-62.064,72.276
		c0-8.147-0.172-16.292,0.17-24.415c0.057-1.35,2.117-3.045,3.639-3.841c26.518-13.862,36.26-46.837,19.809-71.632
		c-5.084-7.664-14.138-12.688-21.314-18.99c-0.951-0.836-2.184-2.063-2.207-3.133
		C-1440.045,485.064-1439.963,476.761-1439.963,468.424z"/>
	<g>
		<path fill-rule="evenodd" clip-rule="evenodd" fill="#DD0000" stroke="#717171" stroke-miterlimit="10" d="M-1438.72,294.486
			c12.32-1.822,24.156-3.476,35.96-5.335c46.139-7.27,86.202-27.418,121.775-57.256c15.022-12.6,28.011-27.034,40.203-42.287
			c2.596-3.247,2.748-6.052,0.263-9.412c-29.781-40.27-64.563-74.867-110.285-96.958c-26.304-12.709-54.018-20.598-83.151-23.322
			c-1.313-0.123-2.625-0.265-4.399-0.444c-0.125-1.476-0.344-2.896-0.349-4.317c-0.033-8.666-0.017-17.332-0.017-25.997
			c0.001-15.503,12.668-28.231,28.101-28.231c93.825,0,187.65,0.029,281.475-0.048c8.844-0.007,15.055,5.214,20.507,10.691
			c6.036,6.064,8.2,13.845,8.16,23.08c-0.401,91.99-0.265,183.982-0.215,275.975c0.006,11.043-6.748,17.991-14.276,24.496
			c-0.946,0.817-2.817,0.774-4.261,0.775c-100.324,0.033-200.649,0.043-300.973-0.059c-2.137-0.002-4.714-0.786-6.334-2.119
			c-7.387-6.079-13.271-13-12.266-23.646C-1438.324,304.995-1438.72,299.837-1438.72,294.486z M-1206.489,106.646
			c1.153,0.203,1.788,0.41,2.423,0.412c5.999,0.019,12.004,0.156,17.998-0.039c9.308-0.304,14.699-3.879,15.29-13.095
			c0.911-14.219,0.342-28.567-0.289-42.83c-0.215-4.859-3.896-9.109-8.849-9.731c-8.764-1.101-17.671-1.065-26.573-1.509
			C-1206.489,62.925-1206.489,84.562-1206.489,106.646z M-1247.544,73.958c0,9.333,0.004,18.666-0.001,27.999
			c-0.002,4.052,2.19,5.924,6.018,5.364c3.325-0.486,8.322,1.14,7.714-5.453c-0.381-4.131-0.072-8.326-0.07-12.492
			c0.004-6.659,0.005-6.659,6.736-6.95c9.936-0.43,15.239-5.728,15.554-15.736c0.125-3.993,0.127-8.009-0.144-11.992
			c-0.521-7.659-5.053-12.885-12.594-13.868c-5.42-0.707-10.955-0.644-16.44-0.705c-5.379-0.06-6.736,1.369-6.769,6.834
			C-1247.594,55.958-1247.555,64.958-1247.544,73.958z M-1149.767,69.11c-3.359-14.996-1.631-17.359,12.354-17.681
			c0.333-0.008,0.667-0.026,0.999-0.006c3.131,0.195,4.658-1.311,4.677-4.407c0.012-1.938,0.003-3.877,0.003-6.192
			c-10.937,0-21.317,0-31.533,0c0,22.195,0,44.074,0,66.298c2.265,0,4.084-0.043,5.901,0.008c5.861,0.161,6.833-0.761,6.794-6.389
			c-0.029-4.324-0.001-8.65,0.022-12.976c0.037-6.724,0.39-7.091,6.918-7.326c0.832-0.03,1.665-0.014,2.497-0.027
			c3.67-0.057,5.372-1.845,5.463-5.589c0.094-3.874-1.905-5.499-5.39-5.682C-1144.004,68.988-1146.961,69.11-1149.767,69.11z"/>
		<path fill-rule="evenodd" clip-rule="evenodd" fill="#DD0000" stroke="#717171" stroke-miterlimit="10" d="M-1438.716,104.867
			c25.044,2.72,62.918,31.276,62.07,74.709c-0.666,34.117-31.774,70.998-62.064,72.312c0-8.151-0.172-16.3,0.169-24.427
			c0.057-1.351,2.118-3.047,3.64-3.843c26.517-13.869,36.259-46.859,19.809-71.667c-5.085-7.668-14.138-12.694-21.314-18.999
			c-0.952-0.837-2.184-2.064-2.208-3.135C-1438.798,121.516-1438.716,113.208-1438.716,104.867z"/>
		<path fill-rule="evenodd" clip-rule="evenodd" fill="#DD0000" stroke="#717171" stroke-miterlimit="10" d="M-1193.549,73.936
			c0-6.148,0.073-12.298-0.035-18.444c-0.046-2.615,0.67-4.248,3.587-4.032c2.714,0.202,6.285-0.502,6.341,3.705
			c0.159,12.283,0.21,24.572-0.03,36.854c-0.077,3.916-3.464,4.369-6.624,4.36c-3.572-0.011-3.19-2.731-3.217-4.993
			C-1193.595,85.569-1193.55,79.752-1193.549,73.936z"/>
		<path fill-rule="evenodd" clip-rule="evenodd" fill="#DD0000" stroke="#717171" stroke-miterlimit="10" d="M-1234.208,61.802
			c-0.003-1.823-0.029-3.646,0.004-5.469c0.043-2.286-0.414-4.879,3.216-4.881c3.375-0.002,6.004,0.965,6.184,4.83
			c0.161,3.471,0.55,7.067-0.168,10.392c-0.412,1.906-2.527,4.065-4.41,4.891c-3.055,1.338-5.067-0.092-4.844-3.799
			C-1234.108,65.785-1234.207,63.79-1234.208,61.802z"/>
	</g>
	<g>
		<path fill-rule="evenodd" clip-rule="evenodd" fill="#D35400" stroke="#717171" stroke-width="1.0097" stroke-miterlimit="10" d="
			M-1439.805,657.954c12.377-1.85,24.268-3.527,36.127-5.414c46.352-7.376,86.599-27.823,122.337-58.103
			c15.091-12.787,28.139-27.436,40.388-42.913c2.608-3.295,2.762-6.142,0.264-9.552c-29.919-40.865-64.86-75.976-110.794-98.394
			c-26.425-12.896-54.267-20.902-83.534-23.667c-1.32-0.125-2.637-0.269-4.42-0.451c-0.125-1.497-0.346-2.939-0.35-4.382
			c-0.033-8.794-0.018-17.588-0.018-26.382c0.002-15.732,12.728-28.648,28.231-28.648c94.258,0,188.516,0.029,282.773-0.049
			c8.885-0.007,15.124,5.291,20.603,10.85c6.063,6.154,8.237,14.049,8.198,23.422c-0.404,93.353-0.268,186.705-0.217,280.06
			c0.006,11.207-6.779,18.257-14.343,24.858c-0.95,0.83-2.829,0.786-4.279,0.787c-100.787,0.034-201.575,0.044-302.362-0.06
			c-2.147-0.002-4.736-0.798-6.364-2.15c-7.421-6.169-13.331-13.192-12.322-23.996
			C-1439.407,668.618-1439.805,663.385-1439.805,657.954z M-1206.502,467.333c1.158,0.206,1.796,0.416,2.434,0.418
			c6.027,0.019,12.06,0.158,18.081-0.04c9.352-0.307,14.767-3.936,15.362-13.288c0.914-14.429,0.343-28.99-0.291-43.464
			c-0.216-4.932-3.914-9.244-8.891-9.876c-8.805-1.116-17.752-1.081-26.695-1.53
			C-1206.502,422.965-1206.502,444.923-1206.502,467.333z M-1247.748,434.162c0,9.471,0.004,18.942,0,28.413
			c-0.002,4.111,2.2,6.012,6.046,5.443c3.34-0.494,8.36,1.157,7.749-5.533c-0.383-4.192-0.073-8.45-0.071-12.678
			c0.004-6.757,0.006-6.757,6.768-7.053c9.981-0.437,15.311-5.812,15.626-15.969c0.126-4.053,0.128-8.128-0.145-12.17
			c-0.523-7.773-5.076-13.076-12.652-14.073c-5.445-0.718-11.006-0.653-16.516-0.716c-5.403-0.061-6.767,1.389-6.801,6.935
			C-1247.797,415.896-1247.758,425.028-1247.748,434.162z M-1149.52,429.242c-3.375-15.218-1.638-17.616,12.411-17.942
			c0.335-0.008,0.671-0.027,1.005-0.006c3.145,0.198,4.68-1.33,4.697-4.473c0.012-1.968,0.004-3.935,0.004-6.283
			c-10.988,0-21.417,0-31.679,0c0,22.522,0,44.726,0,67.278c2.274,0,4.103-0.044,5.927,0.008c5.889,0.164,6.866-0.771,6.827-6.482
			c-0.03-4.389-0.002-8.778,0.021-13.168c0.037-6.823,0.392-7.195,6.95-7.435c0.836-0.03,1.674-0.014,2.51-0.027
			c3.686-0.058,5.395-1.872,5.487-5.673c0.095-3.932-1.915-5.58-5.415-5.766C-1143.729,429.118-1146.699,429.242-1149.52,429.242z"
			/>
		<path fill-rule="evenodd" clip-rule="evenodd" fill="none" d="M-1439.801,465.527c25.161,2.761,63.208,31.739,62.356,75.815
			c-0.669,34.622-31.921,72.049-62.351,73.381c0-8.271-0.173-16.54,0.171-24.787c0.057-1.371,2.127-3.093,3.655-3.899
			c26.64-14.075,36.427-47.554,19.9-72.729c-5.107-7.782-14.203-12.882-21.413-19.28c-0.956-0.849-2.194-2.095-2.217-3.181
			C-1439.884,482.423-1439.801,473.992-1439.801,465.527z"/>
		<path fill-rule="evenodd" clip-rule="evenodd" fill="#D35400" stroke="#717171" stroke-width="1.0097" stroke-miterlimit="10" d="
			M-1193.502,434.139c0-6.239,0.072-12.479-0.035-18.718c-0.047-2.654,0.672-4.311,3.602-4.092c2.729,0.205,6.314-0.51,6.371,3.76
			c0.159,12.466,0.211,24.937-0.031,37.399c-0.076,3.975-3.479,4.435-6.653,4.426c-3.589-0.012-3.206-2.772-3.231-5.068
			C-1193.549,445.944-1193.504,440.041-1193.502,434.139z"/>
		<path fill-rule="evenodd" clip-rule="evenodd" fill="#D35400" stroke="#717171" stroke-width="1.0097" stroke-miterlimit="10" d="
			M-1234.35,421.825c-0.002-1.85-0.029-3.7,0.004-5.549c0.043-2.32-0.416-4.952,3.231-4.954c3.391-0.002,6.031,0.979,6.212,4.902
			c0.161,3.521,0.551,7.171-0.168,10.546c-0.414,1.934-2.539,4.125-4.432,4.962c-3.068,1.357-5.092-0.093-4.865-3.854
			C-1234.248,425.868-1234.348,423.843-1234.35,421.825z"/>
	</g>
	<g>
		<path fill-rule="evenodd" clip-rule="evenodd" fill="#FFFFFF" d="M-1079.523,0c19.838,0,39.538,0,58.941,0
			c-31.564,5.105-51.851,22.684-58.941,54.597C-1079.523,36.513-1079.523,18.362-1079.523,0z"/>
		<path fill-rule="evenodd" clip-rule="evenodd" fill="#FFFFFF" d="M-740.477,336.797c-19.838,0-39.538,0-58.941,0
			c31.564-5.105,51.851-22.684,58.941-54.597C-740.477,300.284-740.477,318.435-740.477,336.797z"/>
		<path fill-rule="evenodd" clip-rule="evenodd" fill="#FFFFFF" d="M-740.477,0c0,19.838,0,39.538,0,58.941
			C-745.582,27.377-763.16,7.091-795.074,0C-776.99,0-758.838,0-740.477,0z"/>
		<path fill-rule="evenodd" clip-rule="evenodd" fill="#FFFFFF" d="M-1079.523,336.797c0-19.838,0-39.538,0-58.941
			c5.105,31.564,22.684,51.85,54.598,58.941C-1043.01,336.797-1061.162,336.797-1079.523,336.797z"/>
	</g>
	<g>
		<path fill-rule="evenodd" clip-rule="evenodd" fill="#F27581" d="M-1079.523,0c20.194,0,40.248,0,60,0
			c-32.131,5.61-52.782,24.928-60,60C-1079.523,40.126-1079.523,20.179-1079.523,0z"/>
		<path fill-rule="evenodd" clip-rule="evenodd" fill="#F27581" d="M-740.477,336.797c-20.194,0-40.248,0-60,0
			c32.131-5.61,52.781-24.928,60-60C-740.477,296.671-740.477,316.618-740.477,336.797z"/>
		<path fill-rule="evenodd" clip-rule="evenodd" fill="#F27581" d="M-740.477,0c0,20.194,0,40.248,0,60
			c-5.61-32.131-24.928-52.782-60-60C-780.604,0-760.655,0-740.477,0z"/>
		<path fill-rule="evenodd" clip-rule="evenodd" fill="#F27581" d="M-1079.523,336.797c0-20.194,0-40.248,0-60
			c5.61,32.131,24.929,52.783,60,60C-1039.396,336.797-1059.345,336.797-1079.523,336.797z"/>
	</g>
	<path fill-rule="evenodd" clip-rule="evenodd" fill="#F27581" d="M-1800,360c20.251,0,40.361,0,60.168,0
		c-32.221,5.664-52.93,25.166-60.168,60.57C-1800,400.508-1800,380.37-1800,360z"/>
	<path fill-rule="evenodd" clip-rule="evenodd" fill="#F27581" d="M-1460,700c-20.251,0-40.361,0-60.168,0
		c32.221-5.664,52.93-25.166,60.168-60.57C-1460,659.492-1460,679.629-1460,700z"/>
	<path fill-rule="evenodd" clip-rule="evenodd" fill="#F27581" d="M-1460,360c0,20.387,0,40.631,0,60.57
		c-5.626-32.438-24.998-53.284-60.168-60.57C-1500.24,360-1480.235,360-1460,360z"/>
	<path fill-rule="evenodd" clip-rule="evenodd" fill="#F27581" d="M-1800,700c0-20.387,0-40.631,0-60.57
		c5.626,32.438,24.998,53.284,60.168,60.57C-1759.76,700-1779.765,700-1800,700z"/>
	<g>
		<path fill-rule="evenodd" clip-rule="evenodd" fill="#F27581" d="M-1440,360c20.251,0,40.361,0,60.168,0
			c-32.221,5.664-52.93,25.166-60.168,60.57C-1440,400.508-1440,380.37-1440,360z"/>
		<path fill-rule="evenodd" clip-rule="evenodd" fill="#F27581" d="M-1100,700c-20.251,0-40.361,0-60.168,0
			c32.221-5.664,52.93-25.166,60.168-60.57C-1100,659.492-1100,679.629-1100,700z"/>
		<path fill-rule="evenodd" clip-rule="evenodd" fill="#F27581" d="M-1100,360c0,20.387,0,40.631,0,60.57
			c-5.626-32.438-24.998-53.284-60.168-60.57C-1140.24,360-1120.235,360-1100,360z"/>
		<path fill-rule="evenodd" clip-rule="evenodd" fill="#F27581" d="M-1440,700c0-20.387,0-40.631,0-60.57
			c5.626,32.438,24.998,53.284,60.168,60.57C-1399.76,700-1419.765,700-1440,700z"/>
	</g>
	<g>
		<path fill-rule="evenodd" clip-rule="evenodd" fill="#F27581" d="M-1080,360c20.251,0,40.361,0,60.168,0
			c-32.221,5.664-52.93,25.166-60.168,60.57C-1080,400.508-1080,380.37-1080,360z"/>
		<path fill-rule="evenodd" clip-rule="evenodd" fill="#F27581" d="M-740,700c-20.251,0-40.361,0-60.168,0
			c32.221-5.664,52.93-25.166,60.168-60.57C-740,659.492-740,679.629-740,700z"/>
		<path fill-rule="evenodd" clip-rule="evenodd" fill="#F27581" d="M-740,360c0,20.387,0,40.631,0,60.57
			c-5.626-32.438-24.998-53.284-60.168-60.57C-780.24,360-760.235,360-740,360z"/>
		<path fill-rule="evenodd" clip-rule="evenodd" fill="#F27581" d="M-1080,700c0-20.387,0-40.631,0-60.57
			c5.626,32.438,24.998,53.284,60.168,60.57C-1039.76,700-1059.765,700-1080,700z"/>
	</g>
	<g>
		<path fill-rule="evenodd" clip-rule="evenodd" fill="#F27581" d="M-720,360c20.251,0,40.361,0,60.168,0
			c-32.221,5.664-52.93,25.166-60.168,60.57C-720,400.508-720,380.37-720,360z"/>
		<path fill-rule="evenodd" clip-rule="evenodd" fill="#F27581" d="M-380,700c-20.251,0-40.361,0-60.168,0
			c32.221-5.664,52.93-25.166,60.168-60.57C-380,659.492-380,679.629-380,700z"/>
		<path fill-rule="evenodd" clip-rule="evenodd" fill="#F27581" d="M-380,360c0,20.387,0,40.631,0,60.57
			c-5.626-32.438-24.998-53.284-60.168-60.57C-420.24,360-400.235,360-380,360z"/>
		<path fill-rule="evenodd" clip-rule="evenodd" fill="#F27581" d="M-720,700c0-20.387,0-40.631,0-60.57
			c5.626,32.438,24.998,53.284,60.168,60.57C-679.76,700-699.765,700-720,700z"/>
	</g>
	<g>
		<path fill-rule="evenodd" clip-rule="evenodd" fill="#F27581" d="M-360,0c20.251,0,40.361,0,60.168,0
			c-32.221,5.664-52.93,25.166-60.168,60.57C-360,40.508-360,20.37-360,0z"/>
		<path fill-rule="evenodd" clip-rule="evenodd" fill="#F27581" d="M-20,340c-20.251,0-40.361,0-60.168,0
			c32.221-5.664,52.93-25.166,60.168-60.57C-20,299.492-20,319.629-20,340z"/>
		<path fill-rule="evenodd" clip-rule="evenodd" fill="#F27581" d="M-20,0c0,20.387,0,40.631,0,60.57
			C-25.626,28.133-44.998,7.286-80.168,0C-60.24,0-40.235,0-20,0z"/>
		<path fill-rule="evenodd" clip-rule="evenodd" fill="#F27581" d="M-360,340c0-20.387,0-40.631,0-60.57
			c5.626,32.438,24.998,53.284,60.168,60.57C-319.76,340-339.765,340-360,340z"/>
	</g>
	<path fill-rule="evenodd" clip-rule="evenodd" fill="#FEFEFE" d="M-357.846,283.563c-0.054-2.302-0.152-4.605-0.153-6.908
		c-0.008-71.605-0.008-143.211,0-214.818c0-2.138,0.087-4.276,0.133-6.415c3.612-11.473,8.075-22.474,16.096-31.756
		c9.707-11.233,22.265-17.512,36.212-21.53c9.218-0.045,18.435-0.129,27.652-0.131c64.696-0.012,129.393-0.007,194.089-0.001
		c2.14,0,4.277,0.074,6.416,0.114c2.796,0.938,5.604,1.839,8.384,2.821c19.862,7.011,33.992,20.059,41.512,39.867
		c1.796,4.732,2.938,9.712,4.383,14.578c0.042,37.036,0.121,74.074,0.118,111.109c-0.004,36.049-0.09,72.098-0.14,108.146
		c-0.656,2.199-1.328,4.394-1.963,6.597c-5.465,18.958-15.655,34.488-33.6,43.59c-7.091,3.598-15.078,5.427-22.656,8.062
		c-41.813,0.041-83.626,0.106-125.439,0.11c-31.277,0.004-62.555-0.069-93.832-0.11c-2.038-0.609-4.065-1.258-6.116-1.826
		c-14.603-4.04-27.283-11.181-37.056-22.988C-350.744,303.688-354.643,293.792-357.846,283.563z"/>
	<g>
		
			<text transform="matrix(1 0 0 1 201.9863 224.3608)" fill="#F9BD00" stroke="#000000" stroke-width="4" stroke-miterlimit="10" font-family="'Consolas-Bold'" font-size="208">}</text>
		<g>
			
				<circle fill-rule="evenodd" clip-rule="evenodd" fill="#F9BD00" stroke="#000000" stroke-width="4" stroke-miterlimit="10" cx="126.334" cy="170" r="16.971"/>
			
				<circle fill-rule="evenodd" clip-rule="evenodd" fill="#F9BD00" stroke="#000000" stroke-width="4" stroke-miterlimit="10" cx="170.002" cy="170" r="16.971"/>
			
				<circle fill-rule="evenodd" clip-rule="evenodd" fill="#F9BD00" stroke="#000000" stroke-width="4" stroke-miterlimit="10" cx="213.668" cy="170" r="16.971"/>
		</g>
		
			<text transform="matrix(1 0 0 1 23.6543 224.3608)" fill="#F9BD00" stroke="#000000" stroke-width="4" stroke-miterlimit="10" font-family="'Consolas-Bold'" font-size="208">{</text>
	</g>
</g>
<g id="Layer_2">
</g>
</svg>
