<?xml version="1.0" encoding="utf-8"?>
<!-- Generator: Adobe Illustrator 16.0.0, SVG Export Plug-In . SVG Version: 6.00 Build 0)  -->
<!DOCTYPE svg PUBLIC "-//W3C//DTD SVG 1.1//EN" "http://www.w3.org/Graphics/SVG/1.1/DTD/svg11.dtd">
<svg version="1.1" id="Layer_1" xmlns="http://www.w3.org/2000/svg" xmlns:xlink="http://www.w3.org/1999/xlink" x="0px" y="0px"
	 width="216px" height="142px" viewBox="43.498 -38.39 216 142" enable-background="new 43.498 -38.39 216 142"
	 xml:space="preserve">
<g>
	<text transform="matrix(-1.3378 0 0 1 244.3311 52.5532)"><tspan x="0" y="0" stroke="#000000" stroke-width="41.0118" stroke-linecap="round" stroke-linejoin="round" stroke-miterlimit="10" font-family="'MyriadPro-Regular'" font-size="186.1524">•</tspan><tspan x="52.494" y="0" stroke="#000000" stroke-width="30.7589" stroke-linecap="round" stroke-linejoin="round" stroke-miterlimit="10" font-family="'MyriadPro-Regular'" font-size="186.1524">•</tspan></text>
	<text transform="matrix(-1.3378 0 0 1 244.3311 52.5532)" fill="#AC1F23" font-family="'MyriadPro-Regular'" font-size="186.1524">••</text>
	
		<text transform="matrix(-1.3378 0 0 1 244.3311 52.5532)" fill="none" stroke="#FBCC34" stroke-width="9.2277" stroke-linecap="round" stroke-linejoin="round" font-family="'MyriadPro-Regular'" font-size="186.1524">••</text>
	
		<text transform="matrix(-1.3378 0 0 1 244.3311 52.5532)" fill="none" stroke="#478EB0" stroke-width="5.1265" stroke-linecap="round" stroke-linejoin="round" font-family="'MyriadPro-Regular'" font-size="186.1524">••</text>
	<text transform="matrix(-1.3378 0 0 1 244.3311 52.5532)" fill="#AC1F23" font-family="'MyriadPro-Regular'" font-size="186.1524">••</text>
</g>
<g>
	<text transform="matrix(1.3378 0 0 -1 65.5664 11.5352)"><tspan x="0" y="0" stroke="#000000" stroke-width="41.0118" stroke-linecap="round" stroke-linejoin="round" stroke-miterlimit="10" font-family="'MyriadPro-Regular'" font-size="186.1524">•</tspan><tspan x="52.494" y="0" stroke="#000000" stroke-width="30.7589" stroke-linecap="round" stroke-linejoin="round" stroke-miterlimit="10" font-family="'MyriadPro-Regular'" font-size="186.1524">•</tspan></text>
	<text transform="matrix(1.3378 0 0 -1 65.5664 11.5352)" fill="#AC1F23" font-family="'MyriadPro-Regular'" font-size="186.1524">••</text>
	
		<text transform="matrix(1.3378 0 0 -1 65.5664 11.5352)" fill="none" stroke="#FBCC34" stroke-width="9.2277" stroke-linecap="round" stroke-linejoin="round" font-family="'MyriadPro-Regular'" font-size="186.1524">••</text>
	
		<text transform="matrix(1.3378 0 0 -1 65.5664 11.5352)" fill="none" stroke="#478EB0" stroke-width="5.1265" stroke-linecap="round" stroke-linejoin="round" font-family="'MyriadPro-Regular'" font-size="186.1524">••</text>
	<text transform="matrix(1.3378 0 0 -1 65.5664 11.5352)" fill="#AC1F23" font-family="'MyriadPro-Regular'" font-size="186.1524">••</text>
</g>
</svg>
